<svg width="44" height="44" viewBox="0 0 44 44" fill="none" xmlns="http://www.w3.org/2000/svg">
<g clip-path="url(#clip0_1_172)" filter="url(#filter0_d_1_172)">
<path d="M39.8627 20.6722C38.5743 16.577 35.6461 12.1307 31.7224 8.21103C27.8572 4.29132 23.4064 1.42467 19.3069 0.137603C17.8429 -0.330422 16.2031 0.430118 15.676 1.8927L4.19758 32.0218C3.78764 33.1334 4.02189 34.3034 4.84178 35.1225C5.42742 35.7075 6.13018 36 6.8915 36C7.24288 36 7.59426 35.9415 7.94564 35.8245L25.5732 29.0966C25.6318 29.0966 25.6318 29.0966 25.6904 29.0381L27.7986 28.2191L38.0472 24.2994C39.5699 23.7729 40.3312 22.1348 39.8627 20.6722ZM7.24288 33.8354C6.77437 34.0109 6.42299 33.7184 6.30587 33.6599C6.18874 33.5429 5.89592 33.2504 6.13018 32.7238L8.58984 26.2885C9.17548 27.5756 10.4053 28.4531 11.928 28.4531C13.9191 28.4531 15.5589 26.815 15.5589 24.8259C15.5589 22.8368 13.9191 21.1987 11.928 21.1987C11.4009 21.1987 10.8738 21.3157 10.4053 21.5497L14.9733 9.4981C15.7346 9.96612 16.4959 10.4341 17.2572 11.0192C16.3202 11.6627 15.7346 12.7743 15.7346 13.9443C15.7346 15.9334 17.3744 17.5715 19.3655 17.5715C20.8882 17.5715 22.1766 16.6355 22.7036 15.3484C25.5147 17.981 28.2672 21.1402 30.6097 25.0014L29.2042 25.5279C29.2042 23.5388 27.5644 21.9008 25.5732 21.9008C23.5821 21.9008 21.9423 23.5388 21.9423 25.5279C21.9423 26.464 22.2937 27.283 22.8793 27.9266L7.24288 33.8354ZM10.2882 24.8259C10.2882 23.9484 10.9909 23.2463 11.8694 23.2463C12.7478 23.2463 13.4506 23.9484 13.4506 24.8259C13.4506 25.7035 12.7478 26.4055 11.8694 26.4055C10.9909 26.4055 10.2882 25.7035 10.2882 24.8259ZM20.9467 13.8273C20.9467 13.8858 20.9467 13.8858 20.9467 13.9443C20.9467 14.8219 20.244 15.5239 19.3655 15.5239C18.4871 15.5239 17.7843 14.8219 17.7843 13.9443C17.7843 13.1253 18.3699 12.4818 19.1898 12.3647C19.7755 12.8328 20.3611 13.3008 20.9467 13.8273ZM25.1633 27.049C24.4605 26.8735 23.9335 26.23 23.9335 25.5279C23.9335 24.6504 24.6362 23.9484 25.5147 23.9484C26.3931 23.9484 27.0959 24.6504 27.0959 25.5279C27.0959 25.879 26.9788 26.1715 26.8031 26.4055L25.1633 27.049ZM37.403 22.3688L32.5423 24.2409C29.6727 19.3851 26.1003 15.5239 22.6451 12.5403C22.5865 12.5403 22.5865 12.4818 22.5279 12.4818C21.708 11.7797 20.8882 11.1362 20.0683 10.5512L20.0097 10.4927C18.4871 9.38109 17.023 8.38654 15.676 7.5675L17.55 2.59473C17.6672 2.24371 18.0186 2.0097 18.3699 2.0097C18.4871 2.0097 18.5456 2.0097 18.6628 2.06821C22.4108 3.23827 26.6274 6.04642 30.2583 9.67361C33.8892 13.3008 36.7003 17.5715 37.8716 21.3157C38.0472 21.7252 37.813 22.1933 37.403 22.3688Z" fill="#52503B"/>
</g>
<defs>
<filter id="filter0_d_1_172" x="0" y="0" width="44" height="44" filterUnits="userSpaceOnUse" color-interpolation-filters="sRGB">
<feFlood flood-opacity="0" result="BackgroundImageFix"/>
<feColorMatrix in="SourceAlpha" type="matrix" values="0 0 0 0 0 0 0 0 0 0 0 0 0 0 0 0 0 0 127 0" result="hardAlpha"/>
<feOffset dy="4"/>
<feGaussianBlur stdDeviation="2"/>
<feComposite in2="hardAlpha" operator="out"/>
<feColorMatrix type="matrix" values="0 0 0 0 0 0 0 0 0 0 0 0 0 0 0 0 0 0 0.25 0"/>
<feBlend mode="normal" in2="BackgroundImageFix" result="effect1_dropShadow_1_172"/>
<feBlend mode="normal" in="SourceGraphic" in2="effect1_dropShadow_1_172" result="shape"/>
</filter>
<clipPath id="clip0_1_172">
<rect width="36" height="36" fill="white" transform="translate(4)"/>
</clipPath>
</defs>
</svg>
